<svg width="16" height="16" viewBox="0 0 16 16" fill="none" xmlns="http://www.w3.org/2000/svg">
<path d="M8.95039 15.6059L15.6198 8.94475C15.7413 8.81805 15.8365 8.66865 15.8999 8.50511C16.0334 8.18077 16.0334 7.81696 15.8999 7.49261C15.8365 7.32908 15.7413 7.17968 15.6198 7.05298L8.95039 0.391799C8.82602 0.267584 8.67837 0.169051 8.51587 0.101826C8.35337 0.0346007 8.17921 0 8.00332 0C7.64811 0 7.30744 0.140934 7.05626 0.391799C6.80509 0.642664 6.66398 0.98291 6.66398 1.33769C6.66398 1.69246 6.80509 2.03271 7.05626 2.28357L11.4581 6.66663L1.33389 6.66663C0.980118 6.66663 0.640838 6.80699 0.390685 7.05683C0.140532 7.30667 0 7.64553 0 7.99886C0 8.35219 0.140532 8.69105 0.390685 8.9409C0.640838 9.19074 0.980118 9.3311 1.33389 9.3311L11.4581 9.3311L7.05626 13.7142C6.93124 13.838 6.83201 13.9853 6.76429 14.1477C6.69657 14.31 6.6617 14.4842 6.6617 14.66C6.6617 14.8359 6.69657 15.01 6.76429 15.1724C6.83201 15.3347 6.93124 15.4821 7.05626 15.6059C7.18027 15.7308 7.3278 15.8299 7.49034 15.8975C7.65289 15.9652 7.82724 16 8.00332 16C8.17941 16 8.35376 15.9652 8.51631 15.8975C8.67885 15.8299 8.82638 15.7308 8.95039 15.6059Z" fill="white"/>
</svg>
