<svg width="16" height="16" viewBox="0 0 16 16" fill="none" xmlns="http://www.w3.org/2000/svg">
<path d="M7.04961 0.394074L0.380176 7.05525C0.258738 7.18195 0.163545 7.33135 0.10006 7.49489C-0.0333532 7.81923 -0.0333532 8.18304 0.10006 8.50739C0.163545 8.67092 0.258738 8.82032 0.380176 8.94702L7.04961 15.6082C7.17398 15.7324 7.32163 15.8309 7.48413 15.8982C7.64663 15.9654 7.82079 16 7.99668 16C8.35189 16 8.69256 15.8591 8.94374 15.6082C9.19491 15.3573 9.33602 15.0171 9.33602 14.6623C9.33602 14.3075 9.19491 13.9673 8.94374 13.7164L4.54191 9.33337H14.6661C15.0199 9.33337 15.3592 9.19301 15.6093 8.94317C15.8595 8.69333 16 8.35447 16 8.00114C16 7.64781 15.8595 7.30895 15.6093 7.0591C15.3592 6.80926 15.0199 6.6689 14.6661 6.6689L4.54191 6.6689L8.94374 2.28585C9.06876 2.162 9.16799 2.01465 9.23571 1.85231C9.30343 1.68996 9.3383 1.51583 9.3383 1.33996C9.3383 1.16409 9.30343 0.989959 9.23571 0.827614C9.16799 0.665269 9.06876 0.517923 8.94374 0.394074C8.81973 0.269207 8.6722 0.170094 8.50966 0.102458C8.34711 0.0348225 8.17276 9.53674e-07 7.99668 9.53674e-07C7.82059 9.53674e-07 7.64624 0.0348225 7.48369 0.102458C7.32115 0.170094 7.17362 0.269207 7.04961 0.394074Z" fill="white"/>
</svg>
