<svg width="16" height="16" viewBox="0 0 196 230" fill="none" xmlns="http://www.w3.org/2000/svg">
<path d="M168.2 204.16C150.067 221.227 126.6 229.76 97.7999 229.76C69.2129 229.76 45.747 221.227 27.4 204.16C9.26696 187.093 0.199951 164.8 0.199951 137.28V0H63.2399V136.32C63.2399 147.2 66.44 155.947 72.84 162.56C79.24 168.96 87.5599 172.16 97.7999 172.16C108.253 172.16 116.68 168.96 123.08 162.56C129.48 155.947 132.68 147.2 132.68 136.32V0H195.72V137.28C195.72 164.8 186.547 187.093 168.2 204.16Z" fill="url(#paint0_linear_21_42)"/>
<defs>
<linearGradient id="paint0_linear_21_42" x1="-19" y1="-69" x2="214.62" y2="281.913" gradientUnits="userSpaceOnUse">
<stop stop-color="#2B7DE1"/>
<stop offset="1" stop-color="#54BEF8"/>
</linearGradient>
</defs>
</svg>
