<svg width="80" height="80" viewBox="0 0 80 80" fill="none" xmlns="http://www.w3.org/2000/svg">
<path fill-rule="evenodd" clip-rule="evenodd" d="M38.4965 0.0976344C52.7402 -0.888685 66.9528 5.67674 75.0339 16.2224C82.5589 26.0424 80.1401 38.6027 76.8434 50.1394C73.6901 61.1741 68.9733 72.7032 57.4914 77.6121C46.0423 82.507 32.7115 79.2019 21.5676 73.772C11.1885 68.7148 3.38971 60.3273 0.825294 50.0014C-1.72089 39.7489 1.85163 29.5374 8.42081 20.8351C15.875 10.9604 25.2224 1.01682 38.4965 0.0976344Z" fill="url(#paint0_linear_7_455)"/>
<path d="M31.8649 32.0462L31.86 32.0501L31.8553 32.0546L31.8649 32.0462ZM53.4648 31.6414C53.3139 31.4959 53.1463 31.3686 52.9657 31.2621C52.7101 31.1116 52.4263 31.0152 52.1319 30.9788C51.8375 30.9423 51.5388 30.9667 51.2541 31.0503C50.9695 31.1339 50.7051 31.275 50.4772 31.4649C50.2493 31.6548 50.0627 31.8894 49.9291 32.1542C49.1816 33.6269 48.1507 34.9376 46.8955 36.011C47.0874 34.9295 47.1842 33.8332 47.1847 32.7348C47.1888 29.3933 46.3073 26.1104 44.63 23.2204C42.9527 20.3303 40.5395 17.9364 37.6361 16.2822C37.3163 16.1009 36.9556 16.0039 36.588 16.0001C36.2204 15.9964 35.8578 16.0861 35.5343 16.2608C35.2109 16.4356 34.9371 16.6897 34.7388 16.9992C34.5404 17.3088 34.4239 17.6636 34.4003 18.0305C34.2788 20.088 33.7409 22.0994 32.8192 23.9429C31.8975 25.7864 30.6111 27.4236 29.0379 28.7552L28.5378 29.1621C26.8928 30.2689 25.4367 31.6334 24.2255 33.2032C22.3426 35.5752 21.0383 38.3532 20.416 41.317C19.7937 44.2808 19.8705 47.3489 20.6403 50.2778C21.41 53.2068 22.8517 55.9161 24.8508 58.191C26.8499 60.4658 29.3515 62.2436 32.1573 63.3833C32.4868 63.518 32.8443 63.5694 33.1983 63.5332C33.5523 63.497 33.892 63.3742 34.1874 63.1757C34.4827 62.9772 34.7247 62.7091 34.892 62.3949C35.0592 62.0808 35.1466 61.7303 35.1463 61.3744C35.1448 61.1442 35.1084 60.9156 35.0383 60.6963C34.5528 58.8714 34.413 56.9718 34.6261 55.0956C36.6794 58.9683 39.9753 62.0381 43.984 63.8114C44.4733 64.0303 45.0265 64.0597 45.5363 63.894C48.7035 62.8718 51.5566 61.0567 53.8247 58.6212C56.0928 56.1856 57.7005 53.2106 58.495 49.9788C59.2894 46.7469 59.2443 43.3656 58.3639 40.1561C57.4835 36.9466 55.7971 34.0155 53.4648 31.6414ZM44.9916 59.4842C43.1001 58.5256 41.4315 57.1796 40.0944 55.5337C38.7572 53.8879 37.7814 51.9791 37.2304 49.9313C37.0622 49.2418 36.932 48.5436 36.8405 47.8398C36.7785 47.3916 36.578 46.9739 36.267 46.6453C35.9561 46.3166 35.5501 46.0934 35.106 46.0067C34.9692 45.9798 34.8301 45.9663 34.6907 45.9665C34.3093 45.9664 33.9346 46.0668 33.6044 46.2577C33.2742 46.4485 33.0002 46.7231 32.81 47.0536C31.0095 50.1591 30.104 53.7024 30.1939 57.291C28.6104 56.0598 27.2869 54.5265 26.3003 52.7801C25.3137 51.0336 24.6835 49.1087 24.4463 47.1169C24.2091 45.1251 24.3695 43.1061 24.9184 41.1767C25.4672 39.2474 26.3935 37.4462 27.6436 35.8775C28.5928 34.6446 29.7378 33.5758 31.0331 32.7137C31.0892 32.6775 31.1429 32.6379 31.1941 32.5951C31.1941 32.5951 31.8379 32.0624 31.8599 32.0502C34.9515 29.4353 37.1503 25.9212 38.1501 21.9975C40.5144 24.1831 42.0909 27.0882 42.6348 30.2618C43.1787 33.4353 42.6596 36.6996 41.1581 39.5478C40.9597 39.9279 40.8784 40.3582 40.9242 40.7844C40.9701 41.2107 41.1412 41.6138 41.416 41.943C41.6907 42.2721 42.0567 42.5125 42.4679 42.6339C42.8791 42.7552 43.317 42.7521 43.7264 42.6248C47.0504 41.5829 49.9753 39.5476 52.1075 36.7931C53.389 38.6859 54.2268 40.8435 54.5584 43.1051C54.8901 45.3668 54.7072 47.6741 54.0232 49.8552C53.3392 52.0363 52.1718 54.0349 50.6081 55.7021C49.0443 57.3693 47.1244 58.6622 44.9916 59.4843L44.9916 59.4842Z" fill="white"/>
<defs>
<linearGradient id="paint0_linear_7_455" x1="0" y1="0" x2="80" y2="80" gradientUnits="userSpaceOnUse">
<stop stop-color="#FC9B0C"/>
<stop offset="1" stop-color="#F8D470"/>
</linearGradient>
</defs>
</svg>
