<svg width="27" height="24" viewBox="0 0 27 24" fill="none" xmlns="http://www.w3.org/2000/svg">
<path d="M25.4024 0.565761C25.0624 0.282848 24.652 0.0974309 24.2149 0.0292421C23.7778 -0.0389468 23.3304 0.012644 22.9203 0.178524L1.51561 8.82042C1.05786 9.00876 0.668203 9.33185 0.398368 9.74682C0.128534 10.1618 -0.00872159 10.649 0.00481992 11.1438C0.0183614 11.6386 0.182059 12.1176 0.474187 12.5172C0.766314 12.9168 1.17306 13.2181 1.64042 13.3811L5.97012 14.8869L8.38341 22.8674C8.4162 22.9741 8.4638 23.0755 8.5248 23.1689C8.53405 23.1832 8.54711 23.1939 8.55695 23.2078C8.62743 23.3062 8.7126 23.3931 8.80948 23.4655C8.83704 23.4865 8.86342 23.5062 8.89288 23.5249C9.00627 23.6001 9.13184 23.6551 9.26401 23.6874L9.27815 23.6886L9.28617 23.6921C9.36564 23.7082 9.44652 23.7164 9.52762 23.7166C9.53542 23.7166 9.54234 23.7128 9.55007 23.7127C9.67245 23.7106 9.79376 23.6895 9.90969 23.6502C9.93666 23.641 9.95977 23.6257 9.98594 23.6146C10.0724 23.5787 10.1543 23.5328 10.2299 23.4777C10.2905 23.4267 10.3511 23.3756 10.4118 23.3246L13.6392 19.7613L18.453 23.4903C18.8768 23.8202 19.3984 23.9996 19.9355 24C20.4983 23.9993 21.0437 23.8051 21.4803 23.45C21.9169 23.095 22.2182 22.6006 22.3336 22.0497L26.2306 2.91958C26.3189 2.48902 26.2885 2.04255 26.1426 1.62794C25.9967 1.21333 25.7409 0.846176 25.4024 0.565761ZM10.0012 15.2671C9.83561 15.4321 9.7224 15.6423 9.67579 15.8713L9.30612 17.6677L8.36963 14.5706L13.2252 12.0421L10.0012 15.2671ZM19.9168 21.6019L14.2283 17.1952C13.9903 17.0113 13.6917 16.9238 13.3921 16.9502C13.0925 16.9765 12.8138 17.1148 12.6116 17.3375L11.578 18.4784L11.9433 16.7029L20.4032 8.24302C20.6051 8.04135 20.7282 7.77404 20.75 7.4895C20.7719 7.20495 20.6911 6.92199 20.5223 6.69187C20.3535 6.46175 20.1079 6.29968 19.8299 6.23503C19.552 6.17038 19.26 6.20742 19.007 6.33944L6.86562 12.661L2.41725 11.0331L23.8907 2.44248L19.9168 21.6019Z" fill="#E4E4E4"/>
</svg>
