<svg width="16" height="24" viewBox="0 0 16 24" fill="none" xmlns="http://www.w3.org/2000/svg">
<path d="M15.8906 9.09732C15.8075 8.89992 15.6802 8.73392 15.523 8.61771C15.3658 8.50151 15.1847 8.43964 14.9999 8.43897H9.99582V1.25696C10.0066 0.99444 9.94475 0.734987 9.81995 0.518651C9.69514 0.302316 9.51427 0.141125 9.30525 0.0599602C9.10431 -0.01911 8.88759 -0.0199986 8.68621 0.0574219C8.48482 0.134842 8.30912 0.28659 8.18434 0.490881L0.1778 13.6579C0.0774834 13.8313 0.0172472 14.0333 0.00318763 14.2435C-0.010872 14.4537 0.0217441 14.6646 0.0977344 14.8549C0.167713 15.0725 0.289279 15.2608 0.44751 15.3969C0.60574 15.533 0.79375 15.6109 0.988461 15.621H5.99255V22.803C5.9927 23.0554 6.05957 23.3013 6.1836 23.5056C6.30762 23.7098 6.48246 23.8619 6.68311 23.9401C6.78366 23.9774 6.88811 23.9976 6.99336 24C7.15128 24.0005 7.30705 23.9563 7.44794 23.871C7.58884 23.7857 7.71086 23.6617 7.80403 23.5092L15.8106 10.3422C15.9184 10.1636 15.9829 9.95289 15.9971 9.73324C16.0112 9.51359 15.9744 9.29354 15.8906 9.09732ZM7.99418 19.1162V14.424C7.99418 14.1065 7.88874 13.8021 7.70105 13.5776C7.51336 13.3531 7.2588 13.227 6.99336 13.227H2.9901L7.99418 4.94373V9.63597C7.99418 9.95344 8.09962 10.2579 8.28731 10.4824C8.475 10.7069 8.72956 10.833 8.995 10.833H12.9983L7.99418 19.1162Z" fill="url(#paint0_linear_7_245)"/>
<defs>
<linearGradient id="paint0_linear_7_245" x1="0" y1="0" x2="22.1538" y2="14.7692" gradientUnits="userSpaceOnUse">
<stop stop-color="#FC9B0C"/>
<stop offset="1" stop-color="#F8D470"/>
</linearGradient>
</defs>
</svg>
