<svg width="26" height="28" viewBox="0 0 26 28" fill="none" xmlns="http://www.w3.org/2000/svg"><mask id="a" maskUnits="userSpaceOnUse" x="0" y="0" width="26" height="28" fill="#000"><path fill="#fff" d="M0 0h26v28H0z"/><path d="M12.37 1.003c-2.03.025-6.393.368-8.833 2.67-1.816 1.85-2.45 4.584-2.524 7.966-.062 3.369-.136 9.696 5.796 11.419v2.624s-.037 1.05.637 1.265c.832.27 1.305-.537 2.096-1.405l1.474-1.714c4.058.347 7.167-.453 7.525-.571.823-.27 5.462-.88 6.22-7.208.777-6.535-.38-10.653-2.466-12.515h-.013c-.63-.597-3.161-2.494-8.817-2.515 0 0-.42-.028-1.095-.016zm.07 1.837c.576-.004.926.022.926.022 4.787.013 7.072 1.494 7.611 1.993 1.758 1.549 2.664 5.26 2 10.717-.63 5.29-4.391 5.625-5.088 5.853-.296.098-3.034.792-6.483.563 0 0-2.569 3.187-3.372 4.008-.127.144-.275.186-.37.165-.136-.034-.177-.207-.17-.445l.025-4.354c-5.03-1.43-4.734-6.827-4.68-9.646.061-2.82.576-5.125 2.108-6.687 2.062-1.917 5.767-2.176 7.491-2.189h.002zm.38 2.819a.306.306 0 0 0-.224.093.323.323 0 0 0-.094.228c0 .182.144.326.317.326a5.793 5.793 0 0 1 2.292.425c.729.296 1.394.737 1.956 1.298 1.149 1.147 1.708 2.687 1.73 4.702 0 .178.14.326.316.326v-.013a.312.312 0 0 0 .223-.094.33.33 0 0 0 .094-.228 7.18 7.18 0 0 0-.44-2.782 7.029 7.029 0 0 0-1.47-2.377c-1.25-1.258-2.836-1.904-4.7-1.904zm-4.167.745a.967.967 0 0 0-.646.13H7.99a4.992 4.992 0 0 0-1.206 1.02c-.288.343-.445.69-.486 1.024-.024.2-.008.399.05.589l.02.013c.325.981.75 1.926 1.268 2.815a16.548 16.548 0 0 0 2.446 3.436l.028.042.045.035.028.034.034.029a16.37 16.37 0 0 0 3.35 2.526c1.392.779 2.236 1.147 2.742 1.3v.008c.149.046.284.067.42.067.432-.032.84-.212 1.161-.512.39-.357.721-.777.98-1.244v-.008c.243-.47.16-.914-.19-1.215a14.61 14.61 0 0 0-2.264-1.671c-.539-.301-1.087-.119-1.309.186l-.473.613c-.243.305-.684.263-.684.263l-.012.008c-3.289-.864-4.166-4.287-4.166-4.287s-.041-.466.263-.703l.593-.491c.283-.237.48-.8.177-1.355a14.614 14.614 0 0 0-1.622-2.328c-.134-.17-.589-.336-.531-.326.057.01.001.002.001.002zm4.713.965c-.42 0-.42.652.004.652a3.88 3.88 0 0 1 1.516.336c.479.214.912.522 1.275.908.33.375.585.815.748 1.294.162.478.23.985.199 1.49a.332.332 0 0 0 .094.228c.06.06.14.094.222.095l.013.017a.315.315 0 0 0 .224-.096.333.333 0 0 0 .093-.23c.029-1.291-.362-2.375-1.128-3.243-.77-.867-1.844-1.354-3.215-1.45h-.045zm.52 1.752c-.433-.013-.45.652-.021.665 1.041.055 1.547.596 1.614 1.71a.328.328 0 0 0 .093.224.31.31 0 0 0 .22.093h.012a.313.313 0 0 0 .223-.107.328.328 0 0 0 .082-.24c-.075-1.451-.845-2.268-2.211-2.344h-.013z"/></mask><path d="M12.37 1.003c-2.03.025-6.393.368-8.833 2.67-1.816 1.85-2.45 4.584-2.524 7.966-.062 3.369-.136 9.696 5.796 11.419v2.624s-.037 1.05.637 1.265c.832.27 1.305-.537 2.096-1.405l1.474-1.714c4.058.347 7.167-.453 7.525-.571.823-.27 5.462-.88 6.22-7.208.777-6.535-.38-10.653-2.466-12.515h-.013c-.63-.597-3.161-2.494-8.817-2.515 0 0-.42-.028-1.095-.016zm.07 1.837c.576-.004.926.022.926.022 4.787.013 7.072 1.494 7.611 1.993 1.758 1.549 2.664 5.26 2 10.717-.63 5.29-4.391 5.625-5.088 5.853-.296.098-3.034.792-6.483.563 0 0-2.569 3.187-3.372 4.008-.127.144-.275.186-.37.165-.136-.034-.177-.207-.17-.445l.025-4.354c-5.03-1.43-4.734-6.827-4.68-9.646.061-2.82.576-5.125 2.108-6.687 2.062-1.917 5.767-2.176 7.491-2.189h.002zm.38 2.819a.306.306 0 0 0-.224.093.323.323 0 0 0-.094.228c0 .182.144.326.317.326a5.793 5.793 0 0 1 2.292.425c.729.296 1.394.737 1.956 1.298 1.149 1.147 1.708 2.687 1.73 4.702 0 .178.14.326.316.326v-.013a.312.312 0 0 0 .223-.094.33.33 0 0 0 .094-.228 7.18 7.18 0 0 0-.44-2.782 7.029 7.029 0 0 0-1.47-2.377c-1.25-1.258-2.836-1.904-4.7-1.904zm-4.167.745a.967.967 0 0 0-.646.13H7.99a4.992 4.992 0 0 0-1.206 1.02c-.288.343-.445.69-.486 1.024-.024.2-.008.399.05.589l.02.013c.325.981.75 1.926 1.268 2.815a16.548 16.548 0 0 0 2.446 3.436l.028.042.045.035.028.034.034.029a16.37 16.37 0 0 0 3.35 2.526c1.392.779 2.236 1.147 2.742 1.3v.008c.149.046.284.067.42.067.432-.032.84-.212 1.161-.512.39-.357.721-.777.98-1.244v-.008c.243-.47.16-.914-.19-1.215a14.61 14.61 0 0 0-2.264-1.671c-.539-.301-1.087-.119-1.309.186l-.473.613c-.243.305-.684.263-.684.263l-.012.008c-3.289-.864-4.166-4.287-4.166-4.287s-.041-.466.263-.703l.593-.491c.283-.237.48-.8.177-1.355a14.614 14.614 0 0 0-1.622-2.328c-.134-.17-.589-.336-.531-.326.057.01.001.002.001.002zm4.713.965c-.42 0-.42.652.004.652a3.88 3.88 0 0 1 1.516.336c.479.214.912.522 1.275.908.33.375.585.815.748 1.294.162.478.23.985.199 1.49a.332.332 0 0 0 .094.228c.06.06.14.094.222.095l.013.017a.315.315 0 0 0 .224-.096.333.333 0 0 0 .093-.23c.029-1.291-.362-2.375-1.128-3.243-.77-.867-1.844-1.354-3.215-1.45h-.045zm.52 1.752c-.433-.013-.45.652-.021.665 1.041.055 1.547.596 1.614 1.71a.328.328 0 0 0 .093.224.31.31 0 0 0 .22.093h.012a.313.313 0 0 0 .223-.107.328.328 0 0 0 .082-.24c-.075-1.451-.845-2.268-2.211-2.344h-.013z" fill="#E4E4E4"/><path d="M12.37 1.003l.004.3h.002l-.006-.3zm-8.833 2.67l-.206-.218-.008.008.214.21zM1.013 11.64l-.3-.007v.001l.3.006zM6.81 23.058h.3v-.226l-.217-.063-.083.289zm0 2.624l.3.01v-.01h-.3zm.637 1.265l.093-.285-.001-.001-.092.286zm2.096-1.405l.222.202.005-.007-.227-.195zm1.474-1.714l.025-.299-.153-.013-.1.116.228.196zm7.525-.571l-.094-.285.094.285zm6.22-7.208l.297.035-.297-.035zM22.294 3.534l.2-.224-.086-.076h-.114v.3zm-.013 0l-.206.217.087.083h.119v-.3zm-8.817-2.515l-.02.3h.019v-.3zM12.44 2.84v.3h.002l-.002-.3zm.926.022l-.021.299h.02l.001-.3zm7.611 1.993l-.204.22.006.005.198-.225zm2 10.717l-.297-.036.297.036zm-5.088 5.853l-.093-.285.093.285zm-6.483.563l.02-.3-.156-.01-.098.122.234.188zm-3.372 4.008l-.214-.21-.005.006-.005.005.224.2zm-.37.165l-.073.291.008.002.065-.293zm-.17-.445l.3.01v-.008l-.3-.002zm.025-4.354l.3.001.001-.227-.219-.063-.082.289zm-4.68-9.646l-.3-.007v.001l.3.006zm2.108-6.687l-.205-.22-.01.01.215.21zm7.491-2.189v-.3h-.002l.002.3zm.381 2.819l-.003.3h.003v-.3zm-.317.321h-.3.3zm.317.326v.3h.006l-.006-.3zm4.248 1.723l.212-.212-.212.212zm1.73 4.702h.3v-.003l-.3.003zm.316.326v.3h.3v-.3h-.3zm0-.013l.001-.3-.3-.001v.3h.3zm.317-.322l-.3-.012v.009l.3.003zm-1.91-5.16l.219-.205-.006-.006-.213.212zM8.653 6.405l.047-.297h-.002l-.045.297zm-.646.13v.3h.084l.072-.043-.156-.256zm-.017 0v-.3h-.083l-.072.044.155.257zm-1.206 1.02l-.227-.195-.002.002.23.193zm-.486 1.024l.298.037-.298-.037zm.05.589l-.287.087.032.107.095.06.16-.254zm.02.013l.285-.095-.033-.101-.091-.058-.16.254zm1.268 2.815l.265-.142-.006-.01-.259.152zm2.446 3.436l.248-.167-.013-.02-.015-.017-.22.204zm.028.042l-.249.168.028.041.04.03.18-.239zm.045.035l.23-.192-.021-.027-.028-.02-.181.239zm.028.034l-.23.192.015.018.017.015.198-.225zm.034.029l.21-.215-.006-.005-.006-.005-.198.225zm3.35 2.526l-.148.261.002.001.147-.262zm2.742 1.3h.3v-.223l-.213-.064-.087.287zm0 .008h-.3v.22l.211.066.09-.286zm.42.067v.3h.023l-.023-.3zm1.161-.512l-.202-.221-.003.002.205.22zm.98-1.244l.262.146.038-.068v-.078h-.3zm0-.008l-.267-.138-.033.065v.073h.3zm-.19-1.215l-.2.223.005.005.195-.228zm-2.264-1.671l.154-.258-.008-.004-.146.262zm-1.309.186l.238.183.005-.007-.243-.176zm-.473.613l.235.187.002-.003-.237-.184zm-.684.263l.029-.299-.104-.01-.087.056.162.253zm-.012.008l-.077.29.128.034.11-.072-.161-.252zm-4.166-4.287l-.3.026.003.024.006.024.29-.075zm.263-.703l.184.236.007-.005-.191-.231zm.593-.491l.19.23h.002l-.192-.23zm.177-1.355l.263-.144-.002-.003-.261.147zM9.183 6.728l-.236.186.008.009.228-.195zm4.187 1.293l.005-.3h-.005v.3zm2.79 1.244l.226-.199-.007-.007-.218.206zm.948 2.785l-.3-.019v.024l.3-.005zm.316.322l.242-.179-.09-.12-.15-.001-.002.3zm.013.017l-.24.178.09.123.152-.001-.002-.3zm.317-.326l-.3-.007v.005l.3.002zM16.626 8.82l.225-.198-.225.198zm-3.215-1.45l.021-.3h-.02v.3zm.474 1.751l.02-.3h-.01l-.01.3zm-.02.665l.016-.3h-.007l-.01.3zm1.614 1.71l.3-.005v-.013l-.3.018zm.313.317l-.002.3h.002v-.3zm.012 0v.3h.014l-.014-.3zm.305-.347l-.3.016v.002l.3-.018zm-2.211-2.344l-.02.3h.004l.016-.3zM12.367.703C11.34.716 9.719.81 8.04 1.192c-1.673.382-3.434 1.06-4.71 2.263l.412.437c1.164-1.099 2.805-1.744 4.431-2.115 1.622-.37 3.197-.462 4.2-.474l-.007-.6zm-9.044 2.76C1.425 5.397.788 8.23.713 11.633l.6.012c.074-3.36.705-5.996 2.438-7.762l-.428-.42zm-2.61 8.17c-.03 1.68-.068 4.152.665 6.425.738 2.29 2.265 4.393 5.347 5.288l.167-.576c-2.849-.828-4.251-2.75-4.943-4.896-.698-2.165-.667-4.54-.636-6.23l-.6-.01zM6.51 23.058v2.624h.6v-2.624h-.6zm.3 2.624l-.3-.01v.005a1.367 1.367 0 0 0 0 .053 2.394 2.394 0 0 0 .075.579c.083.32.283.768.771.924l.183-.572c-.187-.06-.306-.244-.373-.503a1.848 1.848 0 0 1-.056-.466l-.3-.01zm.545 1.55c.262.085.51.089.744.02.23-.068.429-.2.607-.353.178-.154.35-.342.52-.536.173-.2.344-.405.538-.62l-.443-.403c-.2.22-.386.442-.548.629a4.772 4.772 0 0 1-.458.475 1.073 1.073 0 0 1-.385.232.631.631 0 0 1-.39-.014l-.185.57zm2.415-1.495l1.474-1.713-.455-.392-1.474 1.714.455.391zm1.221-1.61c4.103.35 7.253-.455 7.645-.585l-.189-.57c-.324.107-3.391.9-7.405.557l-.05.598zm7.644-.585c.364-.12 1.81-.361 3.216-1.374 1.428-1.028 2.82-2.839 3.208-6.084l-.595-.07c-.37 3.082-1.676 4.74-2.963 5.667-1.308.941-2.594 1.14-3.053 1.29l.187.57zm6.424-7.458c.78-6.557-.36-10.809-2.564-12.774l-.4.447c1.973 1.76 3.144 5.743 2.369 12.256l.595.071zm-2.763-12.85h-.013v.6h.013v-.6zm.193.082C21.8 2.664 19.194.74 13.466.719l-.002.6c5.584.021 8.04 1.891 8.612 2.432l.412-.435zm-9.023-2.297l.02-.299h-.002a.758.758 0 0 0-.02-.001 6.488 6.488 0 0 0-.283-.012c-.194-.006-.472-.01-.815-.004l.01.6a16.683 16.683 0 0 1 1.066.015h.003l.02-.299zM12.442 3.14a15.51 15.51 0 0 1 .9.02h.002l.022-.298.022-.3h-.002-.004a3.847 3.847 0 0 0-.063-.004 16.104 16.104 0 0 0-.881-.018l.004.6zm.923.022c4.729.012 6.936 1.476 7.408 1.913l.408-.44c-.605-.56-2.968-2.06-7.814-2.073l-.002.6zM20.78 5.08c.811.715 1.456 1.959 1.812 3.727.355 1.764.418 4.023.089 6.729l.595.072c.335-2.75.275-5.076-.096-6.92-.37-1.838-1.057-3.224-2.003-4.058l-.397.45zm1.9 10.456c-.305 2.566-1.361 3.894-2.393 4.615-1.058.74-2.079.854-2.49.989l.187.57c.284-.093 1.493-.26 2.647-1.068 1.181-.825 2.321-2.31 2.645-5.035l-.595-.07zm-4.883 5.604c-.264.087-2.963.774-6.37.549l-.04.599c3.492.23 6.268-.47 6.597-.578l-.188-.57zm-6.39.848l-.234-.188-.001.002-.006.007-.021.027-.083.102a174.272 174.272 0 0 1-1.27 1.555c-.747.904-1.58 1.894-1.97 2.293l.428.42c.412-.422 1.264-1.435 2.004-2.33a215.378 215.378 0 0 0 1.274-1.56l.084-.103.021-.027.006-.007.001-.002-.233-.189zm-3.596 3.81a.234.234 0 0 1-.084.064c-.021.008-.02.001.003.006l-.13.586c.23.051.482-.058.66-.26l-.45-.397zm-.073.072a.13.13 0 0 1 .062.037c.013.014.014.022.01.011a.306.306 0 0 1-.012-.066.984.984 0 0 1-.002-.125l-.6-.02c-.005.131.003.276.046.405a.5.5 0 0 0 .35.34l.146-.582zm.058-.152l.024-4.355-.6-.003-.024 4.355.6.003zM7.6 21.073c-2.393-.68-3.514-2.291-4.04-4.097-.533-1.828-.45-3.831-.422-5.254l-.6-.012c-.027 1.396-.118 3.5.445 5.433.57 1.955 1.816 3.758 4.453 4.507l.164-.577zm-4.462-9.35c.061-2.8.573-5.007 2.022-6.484l-.429-.42C3.118 6.465 2.601 8.87 2.54 11.709l.6.013zM5.15 5.247c.974-.905 2.355-1.433 3.732-1.734 1.372-.3 2.707-.367 3.558-.374l-.005-.6c-.873.007-2.254.076-3.681.388-1.422.31-2.925.87-4.013 1.881l.409.44zm7.287-2.108h.002v-.6h-.002v.6zm.384 2.219a.606.606 0 0 0-.239.046l.23.554h.003l.006-.6zm-.239.046a.612.612 0 0 0-.201.136l.427.421a.013.013 0 0 1 .005-.003l-.23-.554zm-.201.136a.623.623 0 0 0-.133.202l.556.227a.024.024 0 0 1 .004-.008l-.427-.42zm-.133.202a.632.632 0 0 0-.047.237l.6.001c0-.004.001-.008.003-.011l-.556-.227zm-.047.237c0 .343.273.626.617.626v-.6c-.002 0-.017-.004-.017-.026h-.6zm.623.626a5.494 5.494 0 0 1 2.173.403l.226-.556a6.093 6.093 0 0 0-2.41-.447l.011.6zm2.173.403c.692.28 1.323.7 1.857 1.232l.424-.424a6.222 6.222 0 0 0-2.056-1.364l-.225.556zm1.857 1.232c1.08 1.078 1.62 2.536 1.642 4.493l.6-.006c-.022-2.072-.6-3.696-1.818-4.911l-.424.424zm1.642 4.49c0 .333.264.626.616.626v-.6l-.003-.001a.017.017 0 0 1-.005-.004.03.03 0 0 1-.008-.021h-.6zm.916.326v-.013h-.6v.013h.6zm-.3.287a.612.612 0 0 0 .437-.184l-.427-.42c-.004.003-.007.004-.009.004l-.001.6zm.437-.184a.63.63 0 0 0 .18-.435l-.6-.006a.03.03 0 0 1-.007.02l.427.421zm.18-.426a7.478 7.478 0 0 0-.458-2.898l-.563.209a6.88 6.88 0 0 1 .422 2.665l.6.024zm-.458-2.898a7.327 7.327 0 0 0-1.533-2.48l-.437.412a6.727 6.727 0 0 1 1.407 2.277l.563-.209zm-1.54-2.485c-1.31-1.316-2.972-1.992-4.913-1.992v.6c1.788 0 3.296.617 4.489 1.815l.425-.423zM8.699 6.107a1.267 1.267 0 0 0-.847.171l.312.513a.667.667 0 0 1 .446-.09l.089-.594zm-.691.128H7.99v.6h.017v-.6zm-.172.043c-.479.289-.91.653-1.278 1.08l.455.392c.326-.38.709-.703 1.133-.958l-.31-.514zM6.555 7.36c-.319.379-.505.778-.555 1.18l.596.074c.033-.266.159-.56.418-.867l-.46-.387zM6 8.541c-.03.24-.01.482.06.713l.575-.174a1.121 1.121 0 0 1-.04-.465L6 8.542zm.188.88l.02.012.32-.507-.02-.013-.32.507zm-.104-.147a15.146 15.146 0 0 0 1.293 2.872l.518-.303a14.543 14.543 0 0 1-1.242-2.758l-.57.189zm1.288 2.862a16.843 16.843 0 0 0 2.49 3.499l.44-.408A16.241 16.241 0 0 1 7.9 11.853l-.53.283zm2.46 3.463l.03.042.497-.335-.029-.042-.497.335zm.097.114l.045.034.362-.479-.045-.034-.362.479zm-.004-.013l.028.034.46-.384-.028-.034-.46.384zm.06.067l.033.029.397-.45-.033-.03-.397.45zm.022.018a16.67 16.67 0 0 0 3.412 2.573l.297-.521a16.063 16.063 0 0 1-3.29-2.48l-.42.428zm3.414 2.574c1.397.782 2.263 1.163 2.802 1.325l.173-.575c-.475-.143-1.296-.498-2.682-1.273l-.293.523zm2.588 1.038v.008h.6v-.008h-.6zm.211.294c.175.055.34.081.509.081v-.6c-.103 0-.208-.015-.33-.053l-.179.572zm.532.08c.5-.037.973-.246 1.343-.591l-.41-.439a1.611 1.611 0 0 1-.979.432l.046.599zm1.34-.59c.415-.378.766-.824 1.04-1.32l-.524-.29a4.603 4.603 0 0 1-.92 1.168l.405.443zm1.078-1.465v-.008h-.6v.008h.6zm-.033.13c.145-.282.203-.575.157-.857a1.205 1.205 0 0 0-.418-.723l-.391.455a.606.606 0 0 1 .216.365.78.78 0 0 1-.098.484l.534.276zm-.256-1.576a14.908 14.908 0 0 0-2.31-1.706l-.309.515a14.31 14.31 0 0 1 2.218 1.637l.4-.446zm-2.319-1.71c-.662-.37-1.38-.165-1.697.271l.485.354c.126-.174.504-.333.92-.101l.292-.524zm-1.692.264l-.474.614.475.367.474-.614-.475-.367zm-.47.61a.421.421 0 0 1-.257.138.732.732 0 0 1-.16.013h-.006.001l-.028.299-.028.299h.012l.022.002a1.183 1.183 0 0 0 .303-.024c.178-.035.427-.124.61-.353l-.47-.373zm-.612.197l-.013.008.325.505.012-.008-.324-.505zm.226-.03c-1.55-.406-2.537-1.417-3.141-2.34a6.98 6.98 0 0 1-.771-1.599 3.5 3.5 0 0 1-.04-.131v-.001l-.29.075-.29.074v.004a1.582 1.582 0 0 0 .012.043l.036.118a7.588 7.588 0 0 0 .84 1.744c.657 1.004 1.753 2.138 3.491 2.594l.153-.58zm-4.242-3.997l.298-.026v-.006a.816.816 0 0 1 .014-.174.42.42 0 0 1 .135-.26l-.369-.473c-.233.182-.321.44-.356.621a1.422 1.422 0 0 0-.022.34v.003a.05.05 0 0 0 0 .002l.3-.027zm.454-.471l.593-.491-.383-.462-.592.49.382.463zm.594-.492c.391-.327.623-1.045.248-1.73l-.526.29c.233.426.07.832-.107.98l.385.46zm.246-1.732a14.92 14.92 0 0 0-1.655-2.376l-.456.39c.6.704 1.132 1.468 1.588 2.28l.523-.294zM9.418 6.542a.917.917 0 0 0-.22-.19 2.284 2.284 0 0 0-.219-.123c-.067-.033-.127-.06-.162-.077l-.021-.01.022.014a.29.29 0 0 1 .034.028.3.3 0 0 1-.07.486c-.063.032-.121.031-.129.032-.03 0-.054-.005-.054-.005l.106-.59c-.004 0-.03-.006-.063-.005-.008 0-.066 0-.13.032a.3.3 0 0 0-.154.35c.024.085.079.133.084.138a.31.31 0 0 0 .067.048l.057.027c.039.018.09.04.145.069.057.028.114.059.16.09a.618.618 0 0 1 .057.04c.015.012.02.018.02.018l.47-.372zm-.82.155c.017.003.017.004.013.002a.23.23 0 0 1-.008-.001l-.028-.009a.3.3 0 0 1 .134-.58h.002a.663.663 0 0 1-.01-.001H8.7l-.047.296-.046.296h.003a.67.67 0 0 0 .042.006l.022.001a.3.3 0 0 0 .085-.011c.01-.003.081-.021.141-.088a.3.3 0 0 0 .035-.356c-.038-.062-.088-.093-.097-.098-.029-.019-.055-.028-.058-.029l-.028-.009a.337.337 0 0 0-.047-.01l-.106.591zm4.768.372a.599.599 0 0 0-.464.207.643.643 0 0 0-.15.42c0 .143.047.297.153.42a.603.603 0 0 0 .465.205v-.6c-.014 0-.018-.003-.016-.002.002 0 .003.002.004.003l-.003-.006a.068.068 0 0 1-.003-.022c0-.009.001-.016.003-.022l.003-.006a.019.019 0 0 1-.006.004h.014v-.6zm0 1.252a3.58 3.58 0 0 1 1.398.31l.244-.548a4.18 4.18 0 0 0-1.633-.362l-.01.6zm1.398.31c.442.197.842.483 1.178.84l.437-.412a4.272 4.272 0 0 0-1.371-.976l-.244.548zm1.172.832c.304.346.539.751.689 1.192l.568-.193a4.109 4.109 0 0 0-.807-1.395l-.45.396zm.689 1.192c.15.442.212.91.183 1.376l.599.037a4.184 4.184 0 0 0-.214-1.606l-.568.193zm.183 1.4a.632.632 0 0 0 .18.433l.428-.421a.032.032 0 0 1-.008-.022l-.6.01zm.18.433c.115.116.27.183.435.184l.003-.6c-.002 0-.006-.001-.01-.005l-.428.42zm.195.062l.013.017.482-.357-.012-.017-.483.357zm.256.139a.615.615 0 0 0 .437-.187l-.43-.419c-.005.005-.009.006-.011.006l.005.6zm.437-.187a.633.633 0 0 0 .178-.437l-.6-.004c0 .01-.004.018-.009.022l.43.419zm.178-.433c.03-1.36-.383-2.519-1.203-3.447l-.45.397c.713.807 1.08 1.816 1.053 3.037l.6.014zm-1.203-3.448c-.831-.937-1.984-1.45-3.419-1.551l-.042.598c1.308.093 2.303.553 3.012 1.352l.449-.399zM13.41 7.07h-.045v.6h.045v-.6zm.483 1.752a.608.608 0 0 0-.476.194.649.649 0 0 0-.165.42.651.651 0 0 0 .14.429c.109.133.27.216.463.222l.018-.6c-.014 0-.019-.003-.017-.003l.001.002h.001s-.007-.011-.007-.033c0-.01.002-.018.005-.024a.026.026 0 0 1 .004-.008l-.004.003s.004-.002.02-.002l.017-.6zm-.045 1.264c.473.025.775.158.97.365.198.21.33.544.36 1.064l.6-.036c-.036-.594-.191-1.088-.523-1.44-.335-.355-.806-.522-1.375-.552l-.032.6zm1.33 1.416c.002.16.066.315.18.43l.427-.421a.028.028 0 0 1-.007-.02l-.6.01zm.18.43a.61.61 0 0 0 .431.182l.003-.6s-.004 0-.007-.003l-.428.42zm.433.182h.012v-.6h-.012v.6zm.026 0a.613.613 0 0 0 .24-.06l-.262-.54a.012.012 0 0 1-.005 0l.027.6zm.24-.06a.62.62 0 0 0 .195-.15l-.451-.395a.02.02 0 0 1-.006.004l.261.54zm.195-.15a.63.63 0 0 0 .122-.212l-.568-.193a.029.029 0 0 1-.005.01l.45.395zm.122-.212a.637.637 0 0 0 .033-.242l-.599.035c0 .005 0 .01-.002.014l.568.193zm.033-.24c-.04-.774-.267-1.417-.702-1.879-.437-.463-1.05-.709-1.791-.75l-.033.6c.625.034 1.08.235 1.388.562.31.329.504.82.539 1.498l.6-.031zm-2.49-2.628l-.013-.001-.039.599h.013l.038-.598z" fill="#E4E4E4" mask="url(#a)"/></svg>