<svg width="26" height="26" viewBox="0 0 26 26" fill="none" xmlns="http://www.w3.org/2000/svg">
<mask id="path-1-outside-1_6_8" maskUnits="userSpaceOnUse" x="6.00269" y="6.42865" width="14" height="13" fill="black">
<rect fill="white" x="6.00269" y="6.42865" width="14" height="13"/>
<path d="M18.3973 15.3545C18.1054 15.2045 16.6509 14.492 16.3804 14.3956C16.1098 14.2938 15.9116 14.2456 15.7161 14.5456C15.5179 14.8429 14.9554 15.5045 14.7786 15.7054C14.6071 15.9036 14.433 15.9278 14.1411 15.7804C12.4054 14.9126 11.267 14.2322 10.1232 12.2688C9.82054 11.7465 10.4259 11.784 10.9911 10.6563C11.0875 10.4581 11.0393 10.2894 10.9643 10.1394C10.8893 9.98936 10.3 8.53758 10.0536 7.94561C9.81518 7.36972 9.56876 7.45008 9.38929 7.43936C9.21786 7.42865 9.02233 7.42865 8.82411 7.42865C8.6259 7.42865 8.30715 7.50365 8.03661 7.79561C7.76608 8.09294 7.00269 8.80811 7.00269 10.2599C7.00269 11.7117 8.06072 13.1179 8.20536 13.3161C8.35536 13.5144 10.2866 16.4929 13.2518 17.776C15.1268 18.5849 15.8607 18.6545 16.7982 18.5153C17.3688 18.4295 18.5446 17.8028 18.7884 17.109C19.0321 16.4179 19.0321 15.826 18.9598 15.7028C18.8875 15.5715 18.6893 15.4965 18.3973 15.3545Z"/>
</mask>
<path d="M18.3973 15.3545C18.1054 15.2045 16.6509 14.492 16.3804 14.3956C16.1098 14.2938 15.9116 14.2456 15.7161 14.5456C15.5179 14.8429 14.9554 15.5045 14.7786 15.7054C14.6071 15.9036 14.433 15.9278 14.1411 15.7804C12.4054 14.9126 11.267 14.2322 10.1232 12.2688C9.82054 11.7465 10.4259 11.784 10.9911 10.6563C11.0875 10.4581 11.0393 10.2894 10.9643 10.1394C10.8893 9.98936 10.3 8.53758 10.0536 7.94561C9.81518 7.36972 9.56876 7.45008 9.38929 7.43936C9.21786 7.42865 9.02233 7.42865 8.82411 7.42865C8.6259 7.42865 8.30715 7.50365 8.03661 7.79561C7.76608 8.09294 7.00269 8.80811 7.00269 10.2599C7.00269 11.7117 8.06072 13.1179 8.20536 13.3161C8.35536 13.5144 10.2866 16.4929 13.2518 17.776C15.1268 18.5849 15.8607 18.6545 16.7982 18.5153C17.3688 18.4295 18.5446 17.8028 18.7884 17.109C19.0321 16.4179 19.0321 15.826 18.9598 15.7028C18.8875 15.5715 18.6893 15.4965 18.3973 15.3545Z" fill="#E4E4E4"/>
<path d="M18.3973 15.3545C18.1054 15.2045 16.6509 14.492 16.3804 14.3956C16.1098 14.2938 15.9116 14.2456 15.7161 14.5456C15.5179 14.8429 14.9554 15.5045 14.7786 15.7054C14.6071 15.9036 14.433 15.9278 14.1411 15.7804C12.4054 14.9126 11.267 14.2322 10.1232 12.2688C9.82054 11.7465 10.4259 11.784 10.9911 10.6563C11.0875 10.4581 11.0393 10.2894 10.9643 10.1394C10.8893 9.98936 10.3 8.53758 10.0536 7.94561C9.81518 7.36972 9.56876 7.45008 9.38929 7.43936C9.21786 7.42865 9.02233 7.42865 8.82411 7.42865C8.6259 7.42865 8.30715 7.50365 8.03661 7.79561C7.76608 8.09294 7.00269 8.80811 7.00269 10.2599C7.00269 11.7117 8.06072 13.1179 8.20536 13.3161C8.35536 13.5144 10.2866 16.4929 13.2518 17.776C15.1268 18.5849 15.8607 18.6545 16.7982 18.5153C17.3688 18.4295 18.5446 17.8028 18.7884 17.109C19.0321 16.4179 19.0321 15.826 18.9598 15.7028C18.8875 15.5715 18.6893 15.4965 18.3973 15.3545Z" stroke="#E4E4E4" stroke-width="0.4" mask="url(#path-1-outside-1_6_8)"/>
<mask id="path-2-outside-2_6_8" maskUnits="userSpaceOnUse" x="0" y="0" width="26" height="26" fill="black">
<rect fill="white" width="26" height="26"/>
<path d="M24.068 8.35C23.4626 6.91161 22.5948 5.62054 21.4885 4.51161C20.3823 3.40536 19.0912 2.53482 17.6501 1.93214C16.1769 1.31339 14.6126 1 13.0001 1H12.9466C11.3234 1.00804 9.75104 1.32946 8.27247 1.96161C6.84479 2.57232 5.56444 3.44018 4.4689 4.54643C3.37337 5.65268 2.51354 6.93839 1.9189 8.37143C1.30283 9.85536 0.992116 11.433 1.00015 13.0562C1.00819 14.9152 1.45283 16.7607 2.28587 18.4107V22.4821C2.28587 23.1625 2.83765 23.7143 3.51801 23.7143H7.59212C9.24211 24.5473 11.0876 24.992 12.9466 25H13.0028C14.6073 25 16.1635 24.6893 17.6287 24.0813C19.0618 23.4839 20.3501 22.6268 21.4537 21.5313C22.56 20.4357 23.4305 19.1554 24.0385 17.7277C24.6707 16.2491 24.9921 14.6768 25.0001 13.0536C25.0082 11.4223 24.6921 9.83929 24.068 8.35V8.35ZM20.0207 20.0821C18.143 21.9411 15.6519 22.9643 13.0001 22.9643H12.9546C11.3394 22.9563 9.73497 22.5545 8.31801 21.7991L8.09301 21.6786H4.32158V17.9071L4.20104 17.6821C3.44569 16.2652 3.0439 14.6607 3.03587 13.0455C3.02515 10.375 4.04569 7.86786 5.91801 5.97946C7.78765 4.09107 10.2868 3.04643 12.9573 3.03571H13.0028C14.3421 3.03571 15.6412 3.29554 16.8653 3.80982C18.06 4.31071 19.1314 5.03125 20.0528 5.95268C20.9716 6.87143 21.6948 7.94554 22.1957 9.14018C22.7153 10.3777 22.9751 11.6902 22.9698 13.0455C22.9537 15.7134 21.9064 18.2125 20.0207 20.0821V20.0821Z"/>
</mask>
<path d="M24.068 8.35C23.4626 6.91161 22.5948 5.62054 21.4885 4.51161C20.3823 3.40536 19.0912 2.53482 17.6501 1.93214C16.1769 1.31339 14.6126 1 13.0001 1H12.9466C11.3234 1.00804 9.75104 1.32946 8.27247 1.96161C6.84479 2.57232 5.56444 3.44018 4.4689 4.54643C3.37337 5.65268 2.51354 6.93839 1.9189 8.37143C1.30283 9.85536 0.992116 11.433 1.00015 13.0562C1.00819 14.9152 1.45283 16.7607 2.28587 18.4107V22.4821C2.28587 23.1625 2.83765 23.7143 3.51801 23.7143H7.59212C9.24211 24.5473 11.0876 24.992 12.9466 25H13.0028C14.6073 25 16.1635 24.6893 17.6287 24.0813C19.0618 23.4839 20.3501 22.6268 21.4537 21.5313C22.56 20.4357 23.4305 19.1554 24.0385 17.7277C24.6707 16.2491 24.9921 14.6768 25.0001 13.0536C25.0082 11.4223 24.6921 9.83929 24.068 8.35V8.35ZM20.0207 20.0821C18.143 21.9411 15.6519 22.9643 13.0001 22.9643H12.9546C11.3394 22.9563 9.73497 22.5545 8.31801 21.7991L8.09301 21.6786H4.32158V17.9071L4.20104 17.6821C3.44569 16.2652 3.0439 14.6607 3.03587 13.0455C3.02515 10.375 4.04569 7.86786 5.91801 5.97946C7.78765 4.09107 10.2868 3.04643 12.9573 3.03571H13.0028C14.3421 3.03571 15.6412 3.29554 16.8653 3.80982C18.06 4.31071 19.1314 5.03125 20.0528 5.95268C20.9716 6.87143 21.6948 7.94554 22.1957 9.14018C22.7153 10.3777 22.9751 11.6902 22.9698 13.0455C22.9537 15.7134 21.9064 18.2125 20.0207 20.0821V20.0821Z" fill="#E4E4E4"/>
<path d="M24.068 8.35C23.4626 6.91161 22.5948 5.62054 21.4885 4.51161C20.3823 3.40536 19.0912 2.53482 17.6501 1.93214C16.1769 1.31339 14.6126 1 13.0001 1H12.9466C11.3234 1.00804 9.75104 1.32946 8.27247 1.96161C6.84479 2.57232 5.56444 3.44018 4.4689 4.54643C3.37337 5.65268 2.51354 6.93839 1.9189 8.37143C1.30283 9.85536 0.992116 11.433 1.00015 13.0562C1.00819 14.9152 1.45283 16.7607 2.28587 18.4107V22.4821C2.28587 23.1625 2.83765 23.7143 3.51801 23.7143H7.59212C9.24211 24.5473 11.0876 24.992 12.9466 25H13.0028C14.6073 25 16.1635 24.6893 17.6287 24.0813C19.0618 23.4839 20.3501 22.6268 21.4537 21.5313C22.56 20.4357 23.4305 19.1554 24.0385 17.7277C24.6707 16.2491 24.9921 14.6768 25.0001 13.0536C25.0082 11.4223 24.6921 9.83929 24.068 8.35V8.35ZM20.0207 20.0821C18.143 21.9411 15.6519 22.9643 13.0001 22.9643H12.9546C11.3394 22.9563 9.73497 22.5545 8.31801 21.7991L8.09301 21.6786H4.32158V17.9071L4.20104 17.6821C3.44569 16.2652 3.0439 14.6607 3.03587 13.0455C3.02515 10.375 4.04569 7.86786 5.91801 5.97946C7.78765 4.09107 10.2868 3.04643 12.9573 3.03571H13.0028C14.3421 3.03571 15.6412 3.29554 16.8653 3.80982C18.06 4.31071 19.1314 5.03125 20.0528 5.95268C20.9716 6.87143 21.6948 7.94554 22.1957 9.14018C22.7153 10.3777 22.9751 11.6902 22.9698 13.0455C22.9537 15.7134 21.9064 18.2125 20.0207 20.0821V20.0821Z" stroke="#E4E4E4" stroke-width="0.4" mask="url(#path-2-outside-2_6_8)"/>
</svg>
