<svg width="80" height="80" viewBox="0 0 80 80" fill="none" xmlns="http://www.w3.org/2000/svg">
<path fill-rule="evenodd" clip-rule="evenodd" d="M39.4369 0.0324611C51.693 -0.53326 62.9073 6.35769 70.5386 15.8316C78.1503 25.281 81.899 37.4689 79.0452 49.2039C76.2268 60.7934 67.0746 69.4138 56.2291 74.6735C45.2527 79.9967 32.535 82.2187 21.44 77.1403C10.1728 71.9831 2.32747 61.1804 0.335086 49.0899C-1.52257 37.817 4.6269 27.5228 11.7839 18.5436C19.0271 9.45623 27.7284 0.572905 39.4369 0.0324611Z" fill="url(#paint0_linear_6_59)"/>
<path d="M54.7895 28.4211H48.4737V26.3158C48.4737 24.6407 47.8083 23.0343 46.6238 21.8499C45.4394 20.6654 43.8329 20 42.1579 20H37.9474C36.2723 20 34.6659 20.6654 33.4814 21.8499C32.297 23.0343 31.6316 24.6407 31.6316 26.3158V28.4211H25.3158C23.6407 28.4211 22.0343 29.0865 20.8499 30.2709C19.6654 31.4553 19 33.0618 19 34.7368V53.6842C19 55.3593 19.6654 56.9657 20.8499 58.1502C22.0343 59.3346 23.6407 60 25.3158 60H54.7895C56.4645 60 58.071 59.3346 59.2554 58.1502C60.4399 56.9657 61.1053 55.3593 61.1053 53.6842V34.7368C61.1053 33.0618 60.4399 31.4553 59.2554 30.2709C58.071 29.0865 56.4645 28.4211 54.7895 28.4211ZM35.8421 26.3158C35.8421 25.7574 36.0639 25.222 36.4587 24.8271C36.8535 24.4323 37.389 24.2105 37.9474 24.2105H42.1579C42.7162 24.2105 43.2517 24.4323 43.6465 24.8271C44.0414 25.222 44.2632 25.7574 44.2632 26.3158V28.4211H35.8421V26.3158ZM56.8947 53.6842C56.8947 54.2426 56.6729 54.778 56.2781 55.1729C55.8833 55.5677 55.3478 55.7895 54.7895 55.7895H25.3158C24.7574 55.7895 24.222 55.5677 23.8271 55.1729C23.4323 54.778 23.2105 54.2426 23.2105 53.6842V42.1053C25.2641 42.9198 27.3751 43.5813 29.5263 44.0842V45.3263C29.5263 45.8847 29.7481 46.4201 30.1429 46.815C30.5377 47.2098 31.0732 47.4316 31.6316 47.4316C32.1899 47.4316 32.7254 47.2098 33.1202 46.815C33.515 46.4201 33.7368 45.8847 33.7368 45.3263V44.8842C35.8302 45.1692 37.94 45.3169 40.0526 45.3263C42.1653 45.3169 44.2751 45.1692 46.3684 44.8842V45.3263C46.3684 45.8847 46.5902 46.4201 46.985 46.815C47.3799 47.2098 47.9153 47.4316 48.4737 47.4316C49.032 47.4316 49.5675 47.2098 49.9623 46.815C50.3571 46.4201 50.5789 45.8847 50.5789 45.3263V44.0842C52.7301 43.5813 54.8412 42.9198 56.8947 42.1053V53.6842ZM56.8947 37.4947C54.8471 38.3589 52.7355 39.0628 50.5789 39.6V38.9474C50.5789 38.389 50.3571 37.8535 49.9623 37.4587C49.5675 37.0639 49.032 36.8421 48.4737 36.8421C47.9153 36.8421 47.3799 37.0639 46.985 37.4587C46.5902 37.8535 46.3684 38.389 46.3684 38.9474V40.5053C42.1816 41.1369 37.9237 41.1369 33.7368 40.5053V38.9474C33.7368 38.389 33.515 37.8535 33.1202 37.4587C32.7254 37.0639 32.1899 36.8421 31.6316 36.8421C31.0732 36.8421 30.5377 37.0639 30.1429 37.4587C29.7481 37.8535 29.5263 38.389 29.5263 38.9474V39.6421C27.3697 39.1049 25.2581 38.401 23.2105 37.5368V34.7368C23.2105 34.1785 23.4323 33.643 23.8271 33.2482C24.222 32.8534 24.7574 32.6316 25.3158 32.6316H54.7895C55.3478 32.6316 55.8833 32.8534 56.2781 33.2482C56.6729 33.643 56.8947 34.1785 56.8947 34.7368V37.4947Z" fill="white"/>
<defs>
<linearGradient id="paint0_linear_6_59" x1="0" y1="0" x2="80" y2="80" gradientUnits="userSpaceOnUse">
<stop stop-color="#6A3AFC"/>
<stop offset="1" stop-color="#A37EFE"/>
</linearGradient>
</defs>
</svg>
