<svg width="80" height="80" viewBox="0 0 80 80" fill="none" xmlns="http://www.w3.org/2000/svg">
<path fill-rule="evenodd" clip-rule="evenodd" d="M39.5937 0.0864019C52.9156 -0.658377 66.9707 3.37706 74.8908 13.5427C82.5484 23.3713 80.102 36.4088 77.1558 48.298C74.2401 60.064 70.4919 73.0596 58.8909 78.1091C47.437 83.0947 34.6996 77.2736 23.6048 71.6071C13.3364 66.3627 3.814 59.2377 0.970511 48.5273C-1.94222 37.5561 1.96534 26.2468 9.16495 17.2172C16.6442 7.83676 27.1988 0.779356 39.5937 0.0864019Z" fill="url(#paint0_linear_6_58)"/>
<path d="M26.9091 38.0909C26.4776 38.0909 26.0557 38.2189 25.6969 38.4586C25.3381 38.6984 25.0585 39.0391 24.8934 39.4378C24.7282 39.8365 24.685 40.2751 24.7692 40.6984C24.8534 41.1216 25.0612 41.5104 25.3663 41.8155C25.6714 42.1206 26.0602 42.3284 26.4834 42.4126C26.9067 42.4968 27.3454 42.4536 27.744 42.2885C28.1427 42.1233 28.4835 41.8437 28.7232 41.4849C28.9629 41.1261 29.0909 40.7043 29.0909 40.2727C29.0909 39.6941 28.861 39.1391 28.4519 38.7299C28.0427 38.3208 27.4877 38.0909 26.9091 38.0909ZM53.0909 38.0909C52.6594 38.0909 52.2376 38.2189 51.8788 38.4586C51.52 38.6984 51.2403 39.0391 51.0752 39.4378C50.91 39.8365 50.8668 40.2751 50.951 40.6984C51.0352 41.1216 51.243 41.5104 51.5481 41.8155C51.8533 42.1206 52.242 42.3284 52.6653 42.4126C53.0885 42.4968 53.5272 42.4536 53.9259 42.2885C54.3245 42.1233 54.6653 41.8437 54.905 41.4849C55.1448 41.1261 55.2727 40.7043 55.2727 40.2727C55.2727 39.6941 55.0429 39.1391 54.6337 38.7299C54.2245 38.3208 53.6696 38.0909 53.0909 38.0909ZM57.4545 25H22.5455C20.8095 25 19.1446 25.6896 17.9171 26.9171C16.6896 28.1446 16 29.8095 16 31.5455V49C16 50.736 16.6896 52.4008 17.9171 53.6283C19.1446 54.8558 20.8095 55.5455 22.5455 55.5455H57.4545C59.1905 55.5455 60.8554 54.8558 62.0829 53.6283C63.3104 52.4008 64 50.736 64 49V31.5455C64 29.8095 63.3104 28.1446 62.0829 26.9171C60.8554 25.6896 59.1905 25 57.4545 25ZM59.6364 49C59.6364 49.5787 59.4065 50.1336 58.9973 50.5428C58.5882 50.952 58.0332 51.1818 57.4545 51.1818H22.5455C21.9668 51.1818 21.4118 50.952 21.0027 50.5428C20.5935 50.1336 20.3636 49.5787 20.3636 49V31.5455C20.3636 30.9668 20.5935 30.4118 21.0027 30.0027C21.4118 29.5935 21.9668 29.3636 22.5455 29.3636H57.4545C58.0332 29.3636 58.5882 29.5935 58.9973 30.0027C59.4065 30.4118 59.6364 30.9668 59.6364 31.5455V49ZM40 33.7273C38.7054 33.7273 37.4399 34.1112 36.3635 34.8304C35.2871 35.5496 34.4482 36.5719 33.9528 37.7679C33.4574 38.9639 33.3278 40.28 33.5803 41.5497C33.8329 42.8194 34.4563 43.9857 35.3717 44.9011C36.2871 45.8165 37.4534 46.4399 38.723 46.6924C39.9927 46.945 41.3088 46.8153 42.5048 46.3199C43.7009 45.8245 44.7231 44.9856 45.4423 43.9092C46.1616 42.8328 46.5455 41.5673 46.5455 40.2727C46.5455 38.5368 45.8558 36.8719 44.6283 35.6444C43.4008 34.4169 41.736 33.7273 40 33.7273ZM40 42.4545C39.5685 42.4545 39.1466 42.3266 38.7878 42.0868C38.429 41.8471 38.1494 41.5063 37.9843 41.1077C37.8191 40.709 37.7759 40.2703 37.8601 39.8471C37.9443 39.4238 38.1521 39.0351 38.4572 38.7299C38.7624 38.4248 39.1511 38.217 39.5743 38.1328C39.9976 38.0486 40.4363 38.0919 40.8349 38.257C41.2336 38.4221 41.5744 38.7018 41.8141 39.0606C42.0539 39.4194 42.1818 39.8412 42.1818 40.2727C42.1818 40.8514 41.9519 41.4063 41.5428 41.8155C41.1336 42.2247 40.5787 42.4545 40 42.4545Z" fill="white"/>
<defs>
<linearGradient id="paint0_linear_6_58" x1="0" y1="0" x2="80" y2="80" gradientUnits="userSpaceOnUse">
<stop stop-color="#E93B25"/>
<stop offset="1" stop-color="#F47B5E"/>
</linearGradient>
</defs>
</svg>
